# xmcd
#
# Track frame offsets: 
#        150
#        15328
#        29968
#        42403
#        53830
#        64953
#        81448
#        95890
#        108535
#        123325
#        134783
#        148218
#        160603
#        174780
#        188280
#        200788
#        214323
#        230793
#        244093
#        256738
#        268378
#        286350
#
# Disc length: 3993 seconds
#
# Revision: 3
# Processed by: cddbd v1.5.2PL0 Copyright (c) Steve Scherf et al.
# Submitted via: ExactAudioCopyFreeDBPlugin 1.0
#
DISCID=590f9716
DTITLE=The Jackson 5 - Soulsation!:  25th Anniversary Collection [box 
DTITLE=set]
DYEAR=1995
DGENRE=Soul
TTITLE0=Got to Be There (solo Michael Jackson)
TTITLE1=People Make the World Go 'Round (solo Michael Jackson)
TTITLE2=Teenage Symphony
TTITLE3=Sugar Daddy
TTITLE4=Ain't Nothing Like the Real Thing
TTITLE5=Lookin' Through the Windows
TTITLE6=Doctor My Eyes
TTITLE7=Little Bitty Pretty One
TTITLE8=If I Have to Move a Mountain
TTITLE9=Rockin' Robin (solo Michael Jackson)
TTITLE10=I Wanna Be Where You Are (solo Michael Jackson)
TTITLE11=Ben (solo Michael Jackson)
TTITLE12=Skywriter
TTITLE13=You Made Me What I Am
TTITLE14=Hallelujah Day
TTITLE15=Touch
TTITLE16=Corner of the Sky
TTITLE17=The Boogie Man
TTITLE18=Get it Together
TTITLE19=Dancing Machine
TTITLE20=It's Too Late to Change the Time
TTITLE21=Whatever You Got, I Want
EXTD=
EXTT0=
EXTT1=
EXTT2=
EXTT3=
EXTT4=
EXTT5=
EXTT6=
EXTT7=
EXTT8=
EXTT9=
EXTT10=
EXTT11=
EXTT12=
EXTT13=
EXTT14=
EXTT15=
EXTT16=
EXTT17=
EXTT18=
EXTT19=
EXTT20=
EXTT21=
PLAYORDER=
